<?xml version="1.0" encoding="utf-8"?>
<!-- Generator: Adobe Illustrator 16.0.0, SVG Export Plug-In . SVG Version: 6.00 Build 0)  -->
<!DOCTYPE svg PUBLIC "-//W3C//DTD SVG 1.1//EN" "http://www.w3.org/Graphics/SVG/1.1/DTD/svg11.dtd">
<svg version="1.1" id="Layer_1" xmlns="http://www.w3.org/2000/svg" xmlns:xlink="http://www.w3.org/1999/xlink" x="0px" y="0px"
	 width="66.667px" height="60px" viewBox="17.593 4.815 66.667 60" enable-background="new 17.593 4.815 66.667 60"
	 xml:space="preserve">
<path d="M84.26,34.795c0-1.085-0.666-1.76-1.602-2.253C82.602,32.507,19.361,4.921,19.361,4.921
	c-0.162-0.073-0.333-0.106-0.506-0.106c-0.242,0-0.481,0.066-0.691,0.201c-0.357,0.23-0.571,0.627-0.571,1.047v25.017
	c0,0.674,0.534,1.223,1.211,1.249l62.587,2.485l-62.587,2.48c-0.677,0.028-1.211,0.577-1.211,1.252v25.017
	c0,0.418,0.214,0.816,0.571,1.049c0.209,0.132,0.449,0.201,0.691,0.201c0.171,0,0.343-0.034,0.506-0.107l62.607-27.3
	C83.184,36.946,84.26,36.11,84.26,34.795z"/>
</svg>
