<svg style="position: absolute; top: 0; z-index:-10"><symbol viewBox="14.259 -2.593 74.075 74.09" id="icon-check"><title>check</title> <path fill="#FFFFFF" d="M52.361-2.577C31.914-3.165,14.862,12.932,14.275,33.38c-0.01,0.359-0.016,0.72-0.016,1.08
	c0,20.454,16.582,37.037,37.038,37.037c20.454,0,37.037-16.583,37.037-37.037C88.342,14.413,72.398-2.001,52.361-2.577z
	 M67.801,16.126l7.338,7.338L53.125,45.455l-7.337,7.338l-7.315-7.338L27.453,34.46l7.338-7.338l10.996,10.995L67.801,16.126z"/> </symbol><symbol viewBox="114.696 0.001 200.722 430.113" id="icon-facebook"><title>facebook</title> <g> <path id="facebook-Facebook" d="M158.081,83.3c0,10.839,0,59.218,0,59.218h-43.385v72.412h43.385v215.184h89.122V214.936h59.805
		c0,0,5.602-34.721,8.316-72.685c-7.784,0-67.784,0-67.784,0s0-42.127,0-49.511c0-7.4,9.717-17.354,19.321-17.354
		c9.586,0,29.818,0,48.557,0c0-9.859,0-43.924,0-75.385c-25.016,0-53.477,0-66.021,0C155.878-0.004,158.081,72.48,158.081,83.3z"/> </g> </symbol><symbol viewBox="0 10.5 90 69" id="icon-github"><title>github</title> <g> <path id="github-Github__x28_alt_x29_" d="M65.709,10.5c1.17,2.657,1.928,7.07,0.797,10.301c4.625,3.949,6.215,13.549,3.982,21.394
		C77.08,42.698,84.932,41.953,90,43.976c-4.738-0.609-11.209-1.804-17.32-1.388c-1.158,0.079-2.873-0.044-2.789,1.585
		c7.074,0.555,14.104,1.16,19.912,2.974c-5.761-0.941-12.754-2.375-19.912-2.574c-2.957,5.835-8.908,8.703-17.123,9.307
		c0.883,1.922,2.574,2.653,2.987,5.744c0.616,4.618-0.964,11.381,0.595,14.459c0.748,1.475,1.967,1.514,2.789,2.775
		c-2.012,2.381-7-0.269-7.568-2.775c-0.973-4.295,1.482-10.953-1.191-13.865c0.188,4.686-1.107,11.264,0.199,15.449
		c0.515,1.646,2.002,2.281,1.593,3.766c-9.352,0.949-5.442-12.104-6.972-19.81c-1.411,0.101-0.791,2.112-0.796,2.972
		c-0.04,7.524,1.541,17.844-6.57,16.838c-0.237-1.582,1.088-2.119,1.593-3.562c1.479-4.233-0.277-10.542,0.401-15.651
		c-3.095,2.334,0.325,10.48-1.593,14.657c-1.105,2.404-4.666,3.45-7.367,2.377c0.352-1.79,2.2-1.501,2.984-3.169
		c1.096-2.324,0.008-5.674,0.399-9.11c-5.729,1.144-10.173-0.166-12.348-3.765c-0.973-1.615-1.214-3.521-2.39-4.951
		c-1.17-1.432-3.04-1.625-3.582-3.563c7.095-1.707,7.367,7.303,13.739,7.524c1.954,0.071,2.97-0.563,4.778-0.987
		c0.506-2.272,1.589-3.967,3.186-5.153c-7.929-1.085-14.477-3.554-17.522-9.504c-7.208,0.354-13.804,1.317-19.913,2.771
		c5.545-2.014,12.384-2.736,19.715-2.973c-0.432-2.596-4.219-1.882-6.57-1.782C8.973,42.781,3.473,43.324,0,43.976
		c5.034-1.795,12.098-1.571,18.918-1.585c-2.086-6.54-1.363-16.929,3.186-20.798C20.815,18.344,21.215,13.03,22.9,10.5
		c5.079,0.228,8.159,2.443,11.35,4.557c3.957-1.125,8.118-1.685,13.54-1.387c2.28,0.126,4.651,1.151,6.369,0.989
		c1.685-0.158,3.542-2.049,5.178-2.771C61.468,10.947,63.271,10.588,65.709,10.5z"/> </g> </symbol><symbol viewBox="0 0 97.394 97.395" id="icon-instagram"><title>instagram</title> <g> <path d="M12.501,0h72.393c6.875,0,12.5,5.09,12.5,12.5v72.395c0,7.41-5.625,12.5-12.5,12.5H12.501C5.624,97.395,0,92.305,0,84.895
		V12.5C0,5.09,5.624,0,12.501,0L12.501,0z M70.948,10.821c-2.412,0-4.384,1.973-4.384,4.386v10.495c0,2.411,1.972,4.385,4.384,4.385
		h11.008c2.412,0,4.385-1.974,4.385-4.385V15.206c0-2.413-1.973-4.386-4.385-4.386H70.948L70.948,10.821z M86.387,41.188h-8.572
		c0.812,2.648,1.25,5.453,1.25,8.355c0,16.2-13.556,29.332-30.274,29.332S18.518,65.743,18.518,49.543
		c0-2.904,0.438-5.708,1.25-8.355h-8.944v41.142c0,2.129,1.741,3.872,3.871,3.872h67.822c2.13,0,3.872-1.742,3.872-3.872V41.188
		H86.387z M48.789,29.533c-10.803,0-19.561,8.484-19.561,18.952c0,10.469,8.758,18.953,19.561,18.953s19.562-8.484,19.562-18.953
		C68.351,38.018,59.593,29.533,48.789,29.533z"/> </g> </symbol><symbol viewBox="0 9.558 430.117 411.001" id="icon-linkedin"><title>linkedin</title> <g> <path id="linkedin-LinkedIn" d="M430.117,261.543V420.56h-92.188V272.193c0-37.271-13.334-62.708-46.702-62.708
		c-25.474,0-40.633,17.142-47.302,33.724c-2.432,5.929-3.058,14.179-3.058,22.478V420.56h-92.219c0,0,1.242-251.285,0-277.319
		h92.209v39.309c-0.187,0.294-0.43,0.611-0.605,0.896h0.605v-0.896c12.252-18.869,34.131-45.824,83.103-45.824
		C384.633,136.724,430.117,176.361,430.117,261.543z M52.183,9.558C20.635,9.558,0,30.251,0,57.463
		c0,26.619,20.038,47.94,50.959,47.94h0.616c32.159,0,52.159-21.317,52.159-47.94C103.128,30.251,83.734,9.558,52.183,9.558z
		 M5.477,420.56h92.184V143.24H5.477V420.56z"/> </g> </symbol><symbol viewBox="17.593 4.815 66.667 60" id="icon-send"><title>send</title> <path d="M84.26,34.795c0-1.085-0.666-1.76-1.602-2.253C82.602,32.507,19.361,4.921,19.361,4.921
	c-0.162-0.073-0.333-0.106-0.506-0.106c-0.242,0-0.481,0.066-0.691,0.201c-0.357,0.23-0.571,0.627-0.571,1.047v25.017
	c0,0.674,0.534,1.223,1.211,1.249l62.587,2.485l-62.587,2.48c-0.677,0.028-1.211,0.577-1.211,1.252v25.017
	c0,0.418,0.214,0.816,0.571,1.049c0.209,0.132,0.449,0.201,0.691,0.201c0.171,0,0.343-0.034,0.506-0.107l62.607-27.3
	C83.184,36.946,84.26,36.11,84.26,34.795z"/> </symbol><symbol viewBox="0.001 147.441 611.999 497.119" id="icon-twitter"><title>twitter</title> <g> <g> <path fill="#010002" d="M612,206.258c-22.525,9.981-46.694,16.75-72.088,19.772c25.929-15.527,45.777-40.155,55.184-69.411
			c-24.321,14.379-51.169,24.82-79.774,30.48c-22.907-24.437-55.49-39.658-91.63-39.658c-69.334,0-125.551,56.217-125.551,125.513
			c0,9.828,1.109,19.427,3.251,28.606c-104.326-5.24-196.835-55.223-258.75-131.174c-10.823,18.51-16.98,40.078-16.98,63.101
			c0,43.559,22.181,81.993,55.835,104.479c-20.575-0.688-39.926-6.348-56.867-15.756v1.568c0,60.806,43.291,111.554,100.693,123.104
			c-10.517,2.83-21.607,4.398-33.08,4.398c-8.107,0-15.947-0.804-23.634-2.333c15.985,49.906,62.336,86.199,117.253,87.193
			c-42.947,33.654-97.099,53.655-155.916,53.655c-10.134,0-20.116-0.612-29.944-1.721c55.567,35.681,121.536,56.484,192.438,56.484
			c230.948,0,357.188-191.291,357.188-357.188l-0.421-16.253C573.872,253.526,595.211,231.422,612,206.258z"/> </g> </g> </symbol></svg>